<?xml version="1.0" encoding="UTF-8"?>
<!DOCTYPE svg PUBLIC "-//W3C//DTD SVG 1.1//EN" "http://www.w3.org/Graphics/SVG/1.1/DTD/svg11.dtd">
<svg version="1.1" xmlns="http://www.w3.org/2000/svg" xmlns:xlink="http://www.w3.org/1999/xlink" x="0" y="0" width="256" height="256" viewBox="0, 0, 256, 256">
  <defs>
    <linearGradient id="Gradient_1" gradientUnits="userSpaceOnUse" x1="118.004" y1="192.075" x2="118.004" y2="43.926" gradientTransform="matrix(1, 0, 0, 1, 14, 14)">
      <stop offset="0" stop-color="#FFFFFF" stop-opacity="0"/>
      <stop offset="1" stop-color="#FFFFFF"/>
    </linearGradient>
    <linearGradient id="Gradient_2" gradientUnits="userSpaceOnUse" x1="46.85" y1="181.3" x2="180.027" y2="44.669" gradientTransform="matrix(1, 0, 0, 1, 15.5, 14.5)">
      <stop offset="0.8" stop-color="#FFFFFF"/>
      <stop offset="1" stop-color="#FFFFFF" stop-opacity="0"/>
    </linearGradient>
  </defs>
  <g id="Capa_1">
    <g>
      <path d="M0,0 L256,0 L256,256 L0,256 z" fill="#EFEFEF"/>
      <path d="M217.6,256 L217.6,0 M38.4,256 L38.4,0 M73.848,256 L73.848,0 M111.26,256 L111.26,0 M144.74,256 L144.74,0 M182.152,256 L182.152,0 M0,217.6 L256,217.6 M0,38.4 L256,38.4 M0,73.848 L256,73.848 M0,109.292 L256,109.292 M0,144.74 L256,144.74 M0,182.152 L256,182.152" fill-opacity="0" stroke="#E0E1E2" stroke-width="1"/>
      <g>
        <path d="M204.404,180.272 L83.724,59.592 C81.502,57.376 77.906,57.376 75.684,59.592 L59.592,75.68 C57.372,77.904 57.372,81.504 59.592,83.728 L180.272,204.408 C182.494,206.627 186.094,206.627 188.316,204.408 L204.404,188.32 C206.624,186.096 206.624,182.496 204.404,180.272 z M74.68,82.72 C72.459,80.5 72.458,76.899 74.678,74.678 C76.898,72.457 80.499,72.456 82.72,74.676 C84.211,76.101 84.815,78.222 84.296,80.218 C83.778,82.215 82.219,83.774 80.223,84.293 C78.227,84.813 76.106,84.211 74.68,82.72 z" fill="#FFBE2A"/>
        <path d="M204.408,180.272 L83.728,59.592 C81.505,57.37 77.903,57.37 75.68,59.592 L59.6,75.68 C57.378,77.904 57.378,81.508 59.6,83.732 L180.28,204.412 C182.502,206.631 186.102,206.631 188.324,204.412 L204.412,188.32 C206.632,186.096 206.632,182.496 204.412,180.272 z M74.68,82.72 C72.459,80.499 72.459,76.897 74.68,74.676 C76.901,72.455 80.503,72.455 82.724,74.676 C84.946,76.897 84.947,80.5 82.726,82.722 C80.505,84.944 76.902,84.945 74.68,82.724 L74.68,82.72 z" fill="url(#Gradient_1)" opacity="0.12"/>
        <path d="M156.14,132 L132,156.136 L127.98,152.116 L152.116,127.976 z" fill="#000000" opacity="0.08"/>
        <path d="M158.652,85.236 L84.664,159.224 L84.616,179.384 L104.776,179.336 L178.764,105.348 L170.72,93.28 z" fill="#1C7ED7"/>
        <path d="M194.768,89.348 L201.144,82.972 C206.784,77.332 206.344,68.476 200.532,62.936 C194.88,57.548 185.804,58.084 180.28,63.604 L174.656,69.232 L182.432,81.04 L194.768,89.344 z" fill="#F9422A"/>
        <path d="M178.768,105.348 L158.656,85.236 L174.744,69.148 L194.86,89.26 z" fill="#BDC3C7"/>
        <path d="M184.8,99.316 L164.688,79.204 L168.708,75.184 L188.82,95.296 z" fill="#000000" opacity="0.2"/>
        <path d="M97.608,177.66 C97.22,177.6 96.916,177.296 96.856,176.908 L95.7,169.252 C95.645,168.861 95.339,168.553 94.948,168.496 L87.304,167.348 C86.914,167.289 86.609,166.982 86.552,166.592 L85.332,158.56 L84.612,159.28 C81.172,162.72 78.344,166.728 76.252,171.128 L69.476,184.948 L68.236,195.776 L79.06,194.536 L92.88,187.756 C97.279,185.668 101.286,182.84 104.728,179.396 L105.444,178.676 L97.616,177.664 L97.612,177.66 z" fill="#ECAD76"/>
        <path d="M79.052,194.532 L69.468,184.948 L62.52,199.12 C62.205,199.797 62.346,200.598 62.874,201.126 C63.402,201.654 64.203,201.795 64.88,201.48 L79.052,194.532 z" fill="#39546F"/>
        <path d="M158.652,85.236 L84.664,159.224 L84.616,179.384 L104.776,179.336 L178.764,105.348 L170.72,93.28 z" fill="#1C7ED7"/>
        <path d="M194.768,89.348 L201.144,82.972 C206.784,77.332 206.344,68.476 200.532,62.936 C194.88,57.548 185.804,58.084 180.28,63.604 L174.656,69.232 L182.432,81.04 L194.768,89.344 z" fill="#F9422A"/>
        <path d="M178.768,105.348 L158.656,85.236 L174.744,69.148 L194.86,89.26 z" fill="#BDC3C7"/>
        <path d="M182.664,101.448 L162.556,81.336 L165.156,78.736 L185.264,98.848 L182.664,101.448 z M188.356,95.76 L168.244,75.644 L170.844,73.044 L190.956,93.16 L188.356,95.76 z M96.632,88.928 L94.62,86.92 L102.84,78.7 L104.848,80.712 L96.632,88.928 z" fill="#000000" opacity="0.08"/>
        <path d="M98.64,90.94 L96.632,88.932 L104.848,80.712 L106.856,82.724 z" fill="#FFFFFF" opacity="0.16"/>
        <path d="M103.424,104.26 L101.416,102.248 L113.896,89.764 L115.908,91.772 z" fill="#000000" opacity="0.08"/>
        <path d="M105.44,106.272 L103.428,104.26 L115.912,91.776 L117.92,93.788 z" fill="#FFFFFF" opacity="0.16"/>
        <path d="M118.752,111.056 L116.744,109.048 L124.964,100.824 L126.972,102.836 z" fill="#000000" opacity="0.08"/>
        <path d="M120.768,113.068 L118.756,111.056 L126.976,102.836 L128.984,104.848 z" fill="#FFFFFF" opacity="0.16"/>
        <path d="M148.68,149.516 L146.668,147.504 L159.156,135.02 L161.164,137.032 z" fill="#000000" opacity="0.08"/>
        <path d="M150.688,151.528 L148.68,149.516 L161.164,137.032 L163.176,139.044 z" fill="#FFFFFF" opacity="0.16"/>
        <path d="M164.008,156.312 L162,154.3 L170.22,146.08 L172.228,148.092 z" fill="#000000" opacity="0.08"/>
        <path d="M166.02,158.32 L164.008,156.312 L172.228,148.092 L174.236,150.104 z" fill="#FFFFFF" opacity="0.16"/>
        <path d="M170.804,171.64 L168.796,169.628 L181.28,157.148 L183.288,159.156 z" fill="#000000" opacity="0.08"/>
        <path d="M172.816,173.652 L170.804,171.64 L183.288,159.16 L185.3,161.172 z" fill="#FFFFFF" opacity="0.16"/>
        <path d="M186.132,178.436 L184.124,176.424 L192.344,168.204 L194.352,170.216 z" fill="#000000" opacity="0.08"/>
        <path d="M188.144,180.448 L186.132,178.436 L194.356,170.216 L196.364,172.228 z" fill="#FFFFFF" opacity="0.16"/>
        <path d="M97.608,177.66 C97.22,177.6 96.916,177.296 96.856,176.908 L95.7,169.252 C95.645,168.861 95.339,168.553 94.948,168.496 L87.304,167.348 C86.914,167.289 86.609,166.982 86.552,166.592 L85.332,158.56 L84.612,159.28 C81.172,162.72 78.344,166.728 76.252,171.128 L69.476,184.948 L68.236,195.776 L79.06,194.536 L92.88,187.756 C97.279,185.668 101.286,182.84 104.728,179.396 L105.444,178.676 L97.616,177.664 L97.612,177.66 z" fill="#ECAD76"/>
        <path d="M79.052,194.532 L69.468,184.948 L62.52,199.12 C62.205,199.797 62.346,200.598 62.874,201.126 C63.402,201.654 64.203,201.795 64.88,201.48 L79.052,194.532 z" fill="#39546F"/>
        <path d="M72.12,189.004 L81.492,177.52 C84.538,173.767 87.779,170.175 91.2,166.76 L91.26,166.7 L188.036,69.928 C192.236,65.728 196.748,62.66 199.496,62.04 C193.816,57.632 185.476,58.412 180.284,63.604 L84.664,159.224 L84.608,159.28 C81.165,162.723 78.338,166.73 76.248,171.128 L69.468,184.944 L62.52,199.12 C62.277,199.627 62.295,200.22 62.568,200.712 L72.12,189.004 z" fill="url(#Gradient_2)" opacity="0.12"/>
      </g>
    </g>
  </g>
</svg>
